# Blender 4.2.3 LTS
# www.blender.org
mtllib camera.mtl
o Cube
v -0.389732 -0.279282 -1.234552
v -0.513582 -0.370795 0.605693
v -0.389732 0.279282 -1.234552
v -0.373475 -0.489783 0.440458
v 0.389732 0.279282 -1.234552
v -0.513582 0.370795 0.605693
v 0.389732 -0.279282 -1.234552
v 0.513582 -0.370795 0.605693
v 0.373475 -0.489783 0.440458
v 0.513582 0.370795 0.605693
v -0.513582 -0.370795 -0.605693
v -0.373475 -0.489783 -0.440458
v -0.513582 0.370795 -0.605693
v 0.513582 -0.370795 -0.605693
v 0.373475 -0.489783 -0.440458
v 0.513582 0.370795 -0.605693
v 0.373475 -0.370795 -0.440458
v -0.373475 -0.370795 0.440458
v -0.373475 -0.370795 -0.440458
v 0.373475 -0.370795 0.440458
v 0.204984 0.146891 -0.605693
v 0.204984 -0.146891 -0.605693
v -0.204984 -0.146891 -0.605693
v -0.204984 0.146891 -0.605693
vn -0.0000 -1.0000 -0.0000
vn 1.0000 -0.0000 -0.0000
vn -0.0000 -0.0000 -1.0000
vn -0.0000 1.0000 -0.0000
vn -0.0000 -0.0000 1.0000
vn -1.0000 -0.0000 -0.0000
vn -0.9595 -0.0000 0.2819
vn -0.0000 0.9785 0.2060
vn 0.9595 -0.0000 0.2819
vn -0.0000 -0.9786 0.2060
vt 0.840900 0.534100
vt 0.875000 0.500000
vt 0.875000 0.750000
vt 0.625000 0.750000
vt 0.659100 0.715900
vt 0.840900 0.715900
vt 0.625000 0.500000
vt 0.659100 0.534100
vt 0.375000 0.750000
vt 0.625000 1.000000
vt 0.375000 1.000000
vt 0.375000 0.250000
vt 0.450481 0.174891
vt 0.549519 0.174891
vt 0.625000 0.250000
vt 0.375000 0.000000
vt 0.625000 0.000000
vt 0.549519 0.075109
vt 0.450481 0.075109
vt 0.125000 0.500000
vt 0.375000 0.500000
vt 0.125000 0.750000
vt 0.569839 0.750000
vt 0.569839 1.000000
vt 0.569839 0.000000
vt 0.569839 0.250000
vt 0.569839 0.500000
vt 0.250000 0.490000
vt 0.250000 0.376231
vt 0.376231 0.250000
vt 0.490000 0.250000
vt 0.250000 0.010000
vt 0.250000 0.123769
vt 0.750000 0.490000
vt 0.510000 0.250000
vt 0.123769 0.250000
vt 0.010000 0.250000
s 0
usemtl Material
f 19/1/1 11/2/1 14/3/1 8/4/1 20/5/1 17/6/1
f 20/5/1 8/4/1 2/7/1 11/2/1 19/1/1 18/8/1
f 10/9/2 8/4/2 14/10/2 16/11/2
f 13/12/3 24/13/3 23/14/3 11/15/3
f 13/12/3 16/16/3 14/17/3 11/15/3 23/14/3 22/18/3 21/19/3 24/13/3
f 13/20/4 6/21/4 10/9/4 16/22/4
f 6/21/5 2/7/5 8/4/5 10/9/5
f 13/12/6 11/15/6 2/7/6 6/21/6
f 4/7/1 12/2/1 15/3/1 9/4/1
f 20/23/2 9/4/2 15/10/2 17/24/2
f 17/25/3 15/17/3 12/15/3 19/26/3
f 18/27/5 4/7/5 9/4/5 20/23/5
f 19/26/6 12/15/6 4/7/6 18/27/6
f 1/28/7 23/29/7 24/30/7 3/31/7
f 5/32/8 3/31/8 24/30/8 21/33/8
f 1/34/3 3/34/3 5/35/3 7/35/3
f 21/33/9 22/36/9 7/37/9 5/32/9
f 23/29/10 1/28/10 7/37/10 22/36/10
